<svg width="51" height="51" viewBox="0 0 51 51" fill="none" xmlns="http://www.w3.org/2000/svg">
<path d="M27.0794 28.5916C27.0794 28.5916 27.8359 28.6554 28.2418 28.1539L29.0366 27.1551C29.4191 26.6621 30.3413 26.3476 31.2466 26.8491C31.9245 27.236 32.5827 27.6566 33.2186 28.1092C33.8178 28.5491 35.046 29.5755 35.0503 29.5755C35.6368 30.0706 35.7728 30.7952 35.3733 31.5602L35.369 31.5772C34.9301 32.3384 34.3727 33.0249 33.7179 33.6109L33.7031 33.6215C33.135 34.0961 32.5761 34.3659 32.0264 34.4311C31.9458 34.4458 31.8639 34.4515 31.7821 34.4481C31.5403 34.4501 31.2999 34.4128 31.0702 34.3376L31.0511 34.3121C30.2053 34.072 28.7943 33.4749 26.4419 32.1786C25.0814 31.4366 23.7862 30.5807 22.5702 29.6201C21.9603 29.1389 21.3785 28.6231 20.8277 28.0752L20.7703 28.0179L20.7108 27.9584L20.6513 27.901L20.5939 27.8415C20.046 27.2907 19.5302 26.7089 19.0491 26.099C18.0886 24.8829 17.2327 23.5877 16.4906 22.2272C15.1943 19.8749 14.5972 18.466 14.3571 17.616L14.3316 17.599C14.2571 17.3691 14.2205 17.1287 14.2232 16.8871C14.2188 16.8054 14.2238 16.7234 14.2381 16.6427C14.3061 16.0945 14.5766 15.5349 15.0498 14.964L15.0604 14.9491C15.6462 14.2941 16.3327 13.7367 17.0941 13.298L17.1089 13.2959C17.8739 12.8964 18.6007 13.0324 19.0937 13.6146C19.0979 13.6167 20.1222 14.8471 20.5599 15.4464C21.0127 16.083 21.4332 16.7418 21.82 17.4205C22.3237 18.3236 22.0092 19.248 21.514 19.6305L20.5153 20.4231C20.0117 20.8311 20.0776 21.5876 20.0776 21.5876C20.0776 21.5876 21.5566 27.1827 27.0794 28.5916ZM25.2137 11.8572C25.1427 11.8564 25.0723 11.8696 25.0065 11.8961C24.9406 11.9226 24.8807 11.9619 24.8301 12.0117C24.7796 12.0615 24.7394 12.1208 24.7118 12.1862C24.6843 12.2516 24.67 12.3218 24.6697 12.3927C24.6694 12.4633 24.683 12.5333 24.7098 12.5986C24.7365 12.664 24.7759 12.7234 24.8256 12.7735C24.8754 12.8236 24.9345 12.8635 24.9996 12.8908C25.0647 12.918 25.1346 12.9322 25.2052 12.9325C28.0803 12.9537 30.4199 13.8824 32.3367 15.7502C34.2364 17.6032 35.2076 20.1214 35.2331 23.4236C35.2333 23.4942 35.2475 23.5641 35.2748 23.6292C35.3021 23.6943 35.3419 23.7534 35.392 23.8032C35.4421 23.8529 35.5016 23.8922 35.5669 23.919C35.6322 23.9458 35.7022 23.9594 35.7728 23.9591C35.8436 23.9588 35.9136 23.9446 35.9789 23.9172C36.0441 23.8898 36.1033 23.8497 36.1531 23.7994C36.2028 23.7491 36.2422 23.6894 36.2688 23.6238C36.2954 23.5582 36.3089 23.488 36.3083 23.4172C36.2807 19.9025 35.2097 17.0507 33.0868 14.981C30.983 12.9304 28.3225 11.8785 25.2137 11.8572ZM26.1976 14.6474C26.1271 14.6422 26.0563 14.6509 25.9892 14.6731C25.9221 14.6952 25.86 14.7304 25.8065 14.7766C25.753 14.8228 25.7092 14.8791 25.6775 14.9422C25.6457 15.0054 25.6268 15.0741 25.6217 15.1446C25.6165 15.2151 25.6252 15.2859 25.6474 15.353C25.6695 15.4201 25.7047 15.4822 25.7509 15.5356C25.7971 15.5891 25.8534 15.633 25.9165 15.6647C25.9797 15.6964 26.0484 15.7154 26.1189 15.7205C28.1717 15.8714 29.6932 16.5429 30.8046 17.7541C31.9181 18.9717 32.4472 20.4529 32.4068 22.3037C32.4054 22.3744 32.4179 22.4445 32.4436 22.5103C32.4694 22.5761 32.5078 22.6361 32.5567 22.687C32.6057 22.738 32.6642 22.7787 32.7289 22.807C32.7936 22.8353 32.8632 22.8506 32.9338 22.852C33.0757 22.8549 33.2129 22.8015 33.3156 22.7036C33.4183 22.6057 33.4782 22.4711 33.482 22.3292C33.5267 20.251 32.8956 18.4469 31.5972 17.0295C30.2861 15.5972 28.4522 14.811 26.1997 14.6474H26.1976ZM27.0029 17.531C26.9323 17.5273 26.8616 17.5375 26.795 17.5612C26.7283 17.5848 26.667 17.6213 26.6145 17.6687C26.562 17.7161 26.5193 17.7734 26.489 17.8372C26.4586 17.9011 26.4412 17.9704 26.4377 18.041C26.4301 18.1833 26.4794 18.3227 26.5746 18.4287C26.6699 18.5347 26.8033 18.5986 26.9456 18.6062C27.8721 18.6551 28.4968 18.9165 28.9218 19.3521C29.3426 19.7899 29.6018 20.4486 29.6507 21.4155C29.6578 21.5574 29.7209 21.6907 29.826 21.7862C29.9311 21.8818 30.0698 21.9319 30.2117 21.9255C30.3532 21.9183 30.4861 21.8556 30.5816 21.751C30.6771 21.6463 30.7275 21.5082 30.7217 21.3666C30.6643 20.2255 30.3392 19.2756 29.6932 18.6041C29.045 17.9369 28.1143 17.5884 27.0029 17.531ZM41.1044 8.3935C40.0483 7.42025 35.7792 4.322 26.2719 4.2795C26.2719 4.2795 15.0626 3.60375 9.59705 8.61662C6.55618 11.6596 5.48518 16.1115 5.37255 21.6322C5.25993 27.1509 5.1133 37.4954 15.0838 40.3004H15.0944L15.0881 44.5822C15.0881 44.5822 15.0243 46.3141 16.1654 46.6669C17.5467 47.0961 18.3542 45.7786 19.6717 44.3591C20.3963 43.5792 21.3951 42.436 22.1473 41.5605C28.9686 42.1342 34.213 40.8231 34.808 40.6276C36.185 40.1814 43.9774 39.1826 45.2418 28.8402C46.5508 18.1791 44.6107 11.4344 41.1044 8.3935ZM42.2604 28.0752C41.1894 36.7112 34.8697 37.2552 33.7052 37.6292C33.2101 37.7886 28.6031 38.934 22.8103 38.5557C22.8103 38.5557 18.4944 43.762 17.1451 45.1177C16.9347 45.3302 16.6882 45.4152 16.5224 45.3727C16.2887 45.3154 16.2249 45.0412 16.2292 44.6396L16.2653 37.5272C7.82905 35.1855 8.32205 26.3795 8.41768 21.7704C8.5133 17.1591 9.3803 13.383 11.9537 10.8415C16.5756 6.65525 26.0956 7.28 26.0956 7.28C34.1366 7.31612 37.9913 9.73862 38.8838 10.5482C41.8503 13.0897 43.3633 19.1672 42.2583 28.0731L42.2604 28.0752Z" fill="#775BE4"/>
</svg>
