<svg width="50" height="51" viewBox="0 0 50 51" fill="none" xmlns="http://www.w3.org/2000/svg">
<path d="M33.5995 29.2048C33.1162 28.9537 30.8015 27.6981 30.3691 27.5028C29.9367 27.3075 29.6315 27.2517 29.3008 27.7818C28.9701 28.312 28.0799 29.4559 27.8001 29.8186C27.5203 30.1813 27.2659 30.2092 26.7826 29.8186C25.3945 29.2075 24.1125 28.3393 22.9927 27.2517C21.9789 26.2048 21.1207 24.9904 20.4491 23.6526C20.1693 23.1504 20.4491 22.8713 20.6526 22.5923C20.8561 22.3133 21.1104 22.0064 21.3648 21.6995C21.5508 21.4341 21.7047 21.1434 21.8226 20.8346C21.8857 20.691 21.9185 20.5337 21.9185 20.3742C21.9185 20.2148 21.8857 20.0575 21.8226 19.9139C21.8226 19.6628 20.7543 17.1238 20.3473 16.0915C19.9404 15.0592 19.5843 15.1987 19.3045 15.1987H18.287C17.8024 15.2194 17.345 15.4502 17.0152 15.8404C16.483 16.3975 16.0614 17.0692 15.7769 17.8134C15.4924 18.5575 15.3511 19.3581 15.3619 20.165C15.492 22.1459 16.156 24.0396 17.2696 25.6056C19.313 28.9353 22.1087 31.627 25.3837 33.4178C26.5028 33.9479 27.3677 34.2548 28.0544 34.5059C29.0188 34.8256 30.0382 34.8925 31.0304 34.7012C31.6895 34.5545 32.314 34.2609 32.8653 33.8386C33.4166 33.4162 33.8829 32.8741 34.2354 32.2459C34.5287 31.4701 34.6253 30.6218 34.5152 29.7907C34.388 29.5954 34.0828 29.4559 33.5995 29.2048Z" fill="#30BD57"/>
<path d="M38.9442 10.6226C37.1025 8.73597 34.9071 7.24267 32.4876 6.23082C30.0681 5.21897 27.4734 4.70906 24.8565 4.73116C21.39 4.74957 17.9888 5.69064 14.9928 7.46038C11.9968 9.23012 9.51079 11.7666 7.78304 14.8165C6.05529 17.8663 5.1463 21.3228 5.14684 24.8408C5.14738 28.3587 6.05744 31.8149 7.78613 34.8642L5.12305 45.2689L15.6156 42.5664C18.5163 44.1682 21.7672 45.0046 25.0696 44.9987H24.8565C28.7923 45.0247 32.6466 43.8606 35.9279 41.6547C39.2091 39.4489 41.7686 36.3013 43.28 32.6133C44.7914 28.9253 45.1861 24.8641 44.4139 20.9476C43.6417 17.031 41.7375 13.4366 38.9442 10.6226ZM24.8565 41.5395C21.902 41.5418 19.0023 40.7291 16.4678 39.1883L15.8819 38.8369L9.65029 40.4855L11.3014 34.3237L10.9286 33.7022C8.80172 30.2263 8.00613 26.079 8.69278 22.0473C9.37942 18.0156 11.5005 14.3799 14.6536 11.8301C17.8067 9.28026 21.7724 7.99369 25.7983 8.21448C29.8243 8.43527 33.6303 10.1481 36.4942 13.0279C38.0296 14.5734 39.2465 16.4136 40.074 18.4412C40.9016 20.4688 41.3232 22.6433 41.3144 24.8379C41.3073 29.2652 39.5711 33.5092 36.4862 36.6398C33.4013 39.7704 29.2192 41.5323 24.8565 41.5395Z" fill="#30BD57"/>
</svg>
